<svg xmlns="http://www.w3.org/2000/svg" viewBox="0 0 196.98 131.19"><defs><style>.cls-1{isolation:isolate;}.cls-2{mix-blend-mode:multiply;opacity:0.75;}.cls-3{fill:#6b6b6b;}.cls-4,.cls-6,.cls-7,.cls-9{fill:none;}.cls-4,.cls-7{stroke:#6b6b6b;}.cls-10,.cls-11,.cls-4,.cls-6,.cls-7,.cls-9{stroke-miterlimit:10;}.cls-10,.cls-4,.cls-6{stroke-width:2px;}.cls-10,.cls-5{fill:#6d6e71;}.cls-10,.cls-6{stroke:#6d6e71;}.cls-7,.cls-9{stroke-width:3px;}.cls-11,.cls-8{fill:#231f20;}.cls-9{stroke:#f1f2f2;}.cls-11{stroke:#231f20;}</style></defs><g class="cls-1"><g id="Layer_1" data-name="Layer 1"><g class="cls-2"><rect class="cls-3" x="8" y="25.43" width="187.98" height="104.77" rx="15.32"/><rect class="cls-4" x="8" y="25.43" width="187.98" height="104.77" rx="15.32"/></g><rect class="cls-5" x="1" y="18.43" width="187.98" height="104.77" rx="15.32"/><rect class="cls-6" x="1" y="18.43" width="187.98" height="104.77" rx="15.32"/><g class="cls-2"><circle class="cls-3" cx="102.83" cy="77.53" r="31.4"/><circle class="cls-7" cx="102.83" cy="77.53" r="31.4"/></g><circle class="cls-8" cx="95.83" cy="70.53" r="31.4"/><circle class="cls-9" cx="95.83" cy="70.53" r="31.4"/><path class="cls-10" d="M80.53,1h28.84a7.21,7.21,0,0,1,7.21,7.21V25.38a0,0,0,0,1,0,0H73.32a0,0,0,0,1,0,0V8.21A7.21,7.21,0,0,1,80.53,1Z"/><path class="cls-10" d="M155.22,11.79h4.08A7.21,7.21,0,0,1,166.51,19v4.21a0,0,0,0,1,0,0H148a0,0,0,0,1,0,0V19A7.21,7.21,0,0,1,155.22,11.79Z"/><circle class="cls-11" cx="157.91" cy="42.51" r="5.23"/></g></g></svg>